<?xml version="1.0" encoding="UTF-8" standalone="no"?><!-- Generator: Gravit.io --><svg xmlns="http://www.w3.org/2000/svg" xmlns:xlink="http://www.w3.org/1999/xlink" style="isolation:isolate" viewBox="0 0 1000 1000" width="1000pt" height="1000pt"><defs><clipPath id="_clipPath_GgVFaI3tPTa04FU9G4lDe4t48JLKZKjb"><rect width="1000" height="1000"/></clipPath></defs><g clip-path="url(#_clipPath_GgVFaI3tPTa04FU9G4lDe4t48JLKZKjb)"><g><path d=" M 204.528 392.937 C 212.231 382.763 246.926 396.04 281.958 422.567 C 316.989 449.094 339.176 478.89 331.472 489.063 C 323.769 499.237 289.074 485.96 254.042 459.433 C 219.011 432.906 196.824 403.11 204.528 392.937 Z " fill="rgb(0,0,0)"/><path d=" M 212.428 397.921 C 219.283 388.868 251.461 401.669 284.239 426.49 C 317.017 451.311 338.063 478.812 331.208 487.865 C 324.353 496.918 292.175 484.117 259.397 459.296 C 226.619 434.475 205.573 406.974 212.428 397.921 Z " fill="rgb(225,197,156)"/></g><g><path d=" M 756.613 398.33 C 749.27 388.633 714.805 402.345 679.696 428.931 C 644.587 455.516 622.044 484.973 629.387 494.67 C 636.73 504.367 671.195 490.655 706.304 464.069 C 741.413 437.484 763.956 408.027 756.613 398.33 Z " fill="rgb(0,0,0)"/><path d=" M 750.636 402.856 C 743.983 394.07 712.756 406.494 680.946 430.581 C 649.136 454.669 628.711 481.358 635.364 490.144 C 642.017 498.93 673.244 486.506 705.054 462.419 C 736.864 438.331 757.289 411.642 750.636 402.856 Z " fill="rgb(225,197,156)"/></g><g><path d=" M 473.339 546.547 C 459.457 539.977 428.876 575.45 405.09 625.712 C 381.305 675.975 373.264 722.115 387.146 728.684 C 401.028 735.253 431.609 699.78 455.395 649.518 C 479.181 599.256 487.221 553.116 473.339 546.547 Z " fill="rgb(0,0,0)"/><path d=" M 469.29 555.103 C 456.712 549.151 429.004 581.291 407.453 626.831 C 385.903 672.37 378.617 714.175 391.195 720.128 C 403.773 726.08 431.481 693.94 453.032 648.4 C 474.583 602.86 481.868 561.055 469.29 555.103 Z " fill="rgb(225,197,156)"/></g><g><path d=" M 486.721 546.5 C 500.567 539.948 531.067 575.326 554.789 625.455 C 578.512 675.584 586.531 721.602 572.686 728.154 C 558.841 734.706 528.341 699.327 504.618 649.198 C 480.896 599.069 472.876 553.051 486.721 546.5 Z " fill="rgb(0,0,0)"/><path d=" M 490.76 555.033 C 503.304 549.097 530.939 581.152 552.432 626.571 C 573.926 671.99 581.192 713.684 568.648 719.62 C 556.103 725.557 528.469 693.502 506.975 648.083 C 485.481 602.664 478.216 560.97 490.76 555.033 Z " fill="rgb(225,197,156)"/></g><g><path d="M 304.13 252 L 656.87 252 C 676.811 252 693 268.189 693 288.13 L 693 604.87 C 693 624.811 676.811 641 656.87 641 L 304.13 641 C 284.189 641 268 624.811 268 604.87 L 268 288.13 C 268 268.189 284.189 252 304.13 252 Z" style="stroke:none;fill:#F8F0D1;stroke-miterlimit:10;"/><path d="M 304.13 252 L 656.87 252 C 676.811 252 693 268.189 693 288.13 L 693 604.87 C 693 624.811 676.811 641 656.87 641 L 304.13 641 C 284.189 641 268 624.811 268 604.87 L 268 288.13 C 268 268.189 284.189 252 304.13 252 Z" style="fill:none;stroke:#000000;stroke-width:28;stroke-linecap:square;stroke-miterlimit:2;"/><path d="M 307.401 291 L 652.689 291 C 671.157 291 686.15 305.993 686.15 324.461 L 686.15 601.539 C 686.15 620.007 671.157 635 652.689 635 L 307.401 635 C 288.933 635 273.94 620.007 273.94 601.539 L 273.94 324.461 C 273.94 305.993 288.933 291 307.401 291 Z" style="stroke:none;fill:#E1C59C;stroke-miterlimit:10;"/><path d="M 307.401 258 L 652.689 258 C 671.157 258 686.15 272.993 686.15 291.461 L 686.15 568.539 C 686.15 587.007 671.157 602 652.689 602 L 307.401 602 C 288.933 602 273.94 587.007 273.94 568.539 L 273.94 291.461 C 273.94 272.993 288.933 258 307.401 258 Z" style="stroke:none;fill:#F8F0D1;stroke-miterlimit:10;"/><g><ellipse vector-effect="non-scaling-stroke" cx="414.5" cy="394.5" rx="36.5" ry="46.5" fill="rgb(0,0,0)"/><rect x="364.369" y="325.117" width="110" height="54" transform="matrix(0.866,0.5,-0.5,0.866,232.243,-162.51)" fill="rgb(248,240,209)"/><ellipse vector-effect="non-scaling-stroke" cx="422.00000000000006" cy="406.44520547945206" rx="7.5" ry="9.554794520547944" fill="rgb(255,255,255)"/></g><g><ellipse vector-effect="non-scaling-stroke" cx="549.5" cy="394.5" rx="36.5" ry="46.5" fill="rgb(0,0,0)"/><rect x="486.631" y="325.117" width="110" height="54" transform="matrix(0.866,-0.5,0.5,0.866,-103.494,317.99)" fill="rgb(248,240,209)"/><ellipse vector-effect="non-scaling-stroke" cx="562.5" cy="402.9999999999999" rx="7.5" ry="9.554794520547944" fill="rgb(255,255,255)"/></g><g><path d=" M 430.301 562.147 C 424.522 537.115 448.005 510.288 482.709 502.276 C 517.413 494.264 550.28 508.081 556.059 533.112 C 561.838 558.144 538.355 584.971 503.651 592.983 C 468.947 600.995 436.08 587.178 430.301 562.147 Z " fill="rgb(0,0,0)"/><path d=" M 427.446 568.498 C 422.355 546.45 448.225 521.622 485.18 513.091 C 522.135 504.559 556.27 515.532 561.361 537.581 C 566.451 559.629 540.581 584.457 503.627 592.989 C 466.672 601.521 432.536 590.547 427.446 568.498 Z " fill="rgb(248,240,209)"/></g><circle vector-effect="non-scaling-stroke" cx="637" cy="313.99999999999994" r="10" fill="rgb(225,197,156)"/><circle vector-effect="non-scaling-stroke" cx="316.9999999999999" cy="562" r="9" fill="rgb(213,187,148)"/><circle vector-effect="non-scaling-stroke" cx="597.7627944162881" cy="293" r="5" fill="rgb(225,197,156)"/></g></g></svg>